<?xml version="1.0" encoding="utf-8"?>
<!-- Generator: Adobe Illustrator 15.1.0, SVG Export Plug-In . SVG Version: 6.00 Build 0)  -->
<!DOCTYPE svg PUBLIC "-//W3C//DTD SVG 1.1//EN" "http://www.w3.org/Graphics/SVG/1.1/DTD/svg11.dtd">
<svg version="1.1" id="Layer_1" xmlns="http://www.w3.org/2000/svg" xmlns:xlink="http://www.w3.org/1999/xlink" x="0px" y="0px"
	 width="256px" height="256px" viewBox="0 0 256 256" enable-background="new 0 0 256 256" xml:space="preserve">
<rect y="0.811" fill="#394456" width="256" height="256"/>
<g>
	<defs>
		<rect id="SVGID_1_" y="0.811" width="256" height="256"/>
	</defs>
	<clipPath id="SVGID_2_">
		<use xlink:href="#SVGID_1_"  overflow="visible"/>
	</clipPath>
	<g opacity="0.2" clip-path="url(#SVGID_2_)">
		<polyline opacity="0.8" fill="#3890C1" points="80.282,244.639 101.526,235.99 126.407,251.688 105.944,263.328 79.527,244.639 		
			"/>
		<polygon fill="#020202" points="253.126,148.281 251.243,169.77 240.087,168.733 		"/>
		<polygon opacity="0.8" fill="#4CABD0" points="235.944,171.914 217.842,166.005 221.901,190.659 		"/>
		<polygon fill="#020202" points="14.208,181.324 106.891,262.66 55.038,272.728 37.49,234.873 23.421,224.769 		"/>
		<polygon fill="#020202" points="264.548,178.729 245.351,205.91 240.812,154.884 223.388,178.312 217.842,166.005 162.225,235.99 
			145.626,227.027 100.511,262.829 141.667,266.611 149.319,266.067 264.548,268.483 		"/>
		<polygon opacity="0.8" fill="#3890C1" points="264.548,162.236 253.126,148.281 251.243,169.77 240.812,154.884 244.84,211.684 
			264.548,180.083 		"/>
		<polygon fill="#020202" points="-8.514,208.964 35.917,255.753 35.917,205.91 100.511,265.855 -8.548,284.749 		"/>
		<path opacity="0.8" fill="#3890C1" d="M42.969,252.017l-4.928-9.279L37.427,232.1c0.291-0.118,1.513-1.404,1.582-3.812
			c0.064-2.206-1.66-7.107-2.487-11.873l-0.606-10.505l-12.496,18.858l-9.213-43.444l-16.146,34.566l40.947,43.994l-1.352-14.413
			L42.969,252.017z"/>
		<path opacity="0.8" fill="#3890C1" d="M145.673,227.799c0,0,0.339,4.804,1.702,8.096l-3.572,11.89l4.35-10.394
			c0.115,0.172,0.232,0.336,0.358,0.485c2.321,2.759,6.582,3.618,6.582,6.165s-0.774,5.877-0.774,5.877l4.998-11.06l2.563-2.563
			L145.673,227.799z"/>
	</g>
</g>
<path fill="#49A6CC" d="M116.649,124.186l37.334-37.335H93.781v51.023L78.024,153.65V71.093h78.862
	c19.791,0,18.801,16.34,13.208,21.933l-27.574,27.575l35.457,45.013l-2.909,2.915L116.649,124.186z"/>
</svg>
